<!-- Generator: Adobe Illustrator 19.1.0, SVG Export Plug-In  -->
<svg version="1.1"
	 xmlns="http://www.w3.org/2000/svg" xmlns:xlink="http://www.w3.org/1999/xlink" xmlns:a="http://ns.adobe.com/AdobeSVGViewerExtensions/3.0/"
	 x="0px" y="0px" width="12px" height="18px" viewBox="0 0 12 18" enable-background="new 0 0 12 18" xml:space="preserve">
<defs>
</defs>
<g>
	<g>
		<path fill="#90A1B1" d="M4.5,1.6C4.3,1.1,4.1,0.3,3.6,0.1c-0.3-0.2-0.7,0-0.8,0.2C2.5,0.9,2.8,1.9,3,2.5C3.5,4,4.1,5.6,4.6,7
			c0.3-0.3,1.2-0.2,1.8-0.1C5.8,5.2,5.2,3.3,4.5,1.6z M11.3,2.8c0.2-0.6,0.5-1,0.4-1.7c0-0.4-0.3-0.7-0.7-0.7c-0.6,0-0.9,1-1.1,1.4
			C9.2,3.5,8.6,5.4,8.1,7c0.6,0.1,1.1,0.2,1.7,0.3C10.2,6,10.8,4.3,11.3,2.8z M2.7,14.9c0.4,0.1,1,0,1.1-0.4c0.1-0.4-0.3-0.8-0.4-1
			c-0.4-0.7-0.7-1-1.2-1.6c-0.2-0.2-0.5-0.6-0.8-0.6c-0.5,0-0.9,0.5-1.1,0.8c-0.5,0.9,0,2.1,0.4,2.8c1,1.6,2.6,3,5.2,3
			c2.2,0,3.7-1.1,4.6-2.3c1-1.3,1.7-3.1,1.5-5.4c0-0.4-0.1-0.9-0.3-1.3C11.3,8.5,10.1,8.2,9.1,8c-0.5-0.1-1-0.2-1.6-0.2
			C6.7,7.6,5.4,7.4,5.1,7.9C4.8,8.2,5,8.9,5.2,9.1c0.6,0.9,2.2,1,3.6,1c0.7,0,1.7-0.2,1.6,0.5c-0.1,0.3-0.9,0.5-1.3,0.7
			c-0.5,0.2-0.9,0.5-1.2,0.7c-0.6,0.5-1.3,1.4-1.4,2.4c-0.1,1,0.4,1.3,0.3,2.3c-1.1-0.2-1.2-1.3-1.3-2.5c-0.2,0.1-0.6,0.1-0.9,0
			c0.4,1.5-1.1,2-2.2,1.5c-0.4-0.2-0.9-0.6-1.2-1.1c-0.4-0.5-0.7-1.1-0.3-1.7C1.5,13.6,1.9,14.6,2.7,14.9z M1.8,9.3
			c0,0.5,0.3,1,0.5,1.3c0.5,0.8,1,1.5,1.6,2.1c0.3,0.3,0.7,0.7,1.2,0.7c0.2,0,0.5-0.3,0.5-0.5c0.1-0.4-0.2-1-0.4-1.4
			C4.9,10.7,4.5,9.9,4,9.2C3.7,8.8,3.3,8.3,2.8,8.4C2.4,8.4,1.8,8.8,1.8,9.3z M6.5,12.3c0.4-0.5,0.9-0.9,1.4-1.3
			c-0.8,0-1.5-0.2-2-0.3C6.1,11.1,6.3,11.7,6.5,12.3z"/>
	</g>
</g>
</svg>
