<!-- Generator: Adobe Illustrator 19.1.0, SVG Export Plug-In  -->
<svg version="1.1"
	 xmlns="http://www.w3.org/2000/svg" xmlns:xlink="http://www.w3.org/1999/xlink" xmlns:a="http://ns.adobe.com/AdobeSVGViewerExtensions/3.0/"
	 x="0px" y="0px" width="33.6px" height="31.4px" viewBox="0 0 33.6 31.4" enable-background="new 0 0 33.6 31.4"
	 xml:space="preserve">
<defs>
</defs>
<g>
	<path fill="#132532" d="M33,7.4c-0.7-0.5-1.6-0.4-2.1,0.3l-4.8,6.5L23.2,12c-0.7-0.5-1.6-0.4-2.1,0.3c-0.5,0.7-0.4,1.6,0.3,2.1
		l4.1,3.1c0.3,0.2,0.6,0.3,0.9,0.3c0.1,0,0.1,0,0.2,0c0.4-0.1,0.8-0.3,1-0.6l5.7-7.7C33.8,8.8,33.7,7.9,33,7.4z"/>
	<path fill="#132532" d="M11.8,13.7c3.8,0,6.9-3.1,6.9-6.9S15.5,0,11.8,0S4.9,3.1,4.9,6.9S8,13.7,11.8,13.7z M11.8,3
		c2.1,0,3.9,1.7,3.9,3.9s-1.7,3.9-3.9,3.9S7.9,9,7.9,6.9S9.6,3,11.8,3z"/>
	<path fill="#132532" d="M13.5,16H10c-5.5,0-10,4.5-10,10v4c0,0.8,0.7,1.5,1.5,1.5H22c0.8,0,1.5-0.7,1.5-1.5v-4
		C23.5,20.4,19,16,13.5,16z M20.5,28.4H3v-2.5c0-3.8,3.1-7,7-7h3.6c3.8,0,7,3.1,7,7V28.4z"/>
</g>
</svg>
