<!-- Generator: Adobe Illustrator 19.1.0, SVG Export Plug-In  -->
<svg version="1.1"
	 xmlns="http://www.w3.org/2000/svg" xmlns:xlink="http://www.w3.org/1999/xlink" xmlns:a="http://ns.adobe.com/AdobeSVGViewerExtensions/3.0/"
	 x="0px" y="0px" width="56.2px" height="59.2px" viewBox="0 0 56.2 59.2" enable-background="new 0 0 56.2 59.2"
	 xml:space="preserve">
<defs>
</defs>
<g>
	<path fill="#112533" d="M56.2,57L53,47.1c1.8-3.3,2.7-7.1,2.7-10.8v-1.4C55.7,22.3,45.5,12,32.9,12S10,22.3,10,34.9v1.4
		c0,12.6,10.3,22.9,22.9,22.9c4.2,0,8.3-1.2,11.9-3.4l9.5,3.1c0.5,0.2,1.1,0,1.5-0.4C56.2,58.1,56.3,57.5,56.2,57z M52.7,36.3
		c0,3.5-0.9,6.9-2.7,9.9c-0.2,0.4-0.3,0.8-0.1,1.2l2.5,7.7l-7.4-2.4c-0.4-0.1-0.9-0.1-1.3,0.2c-3.2,2.1-7,3.3-10.9,3.3
		c-11,0-19.9-8.9-19.9-19.9v-1.4c0-11,8.9-19.9,19.9-19.9s19.9,8.9,19.9,19.9V36.3z"/>
	<path fill="#112533" d="M42.3,34H23.5c-0.8,0-1.5,0.7-1.5,1.5s0.7,1.5,1.5,1.5h18.8c0.8,0,1.5-0.7,1.5-1.5S43.1,34,42.3,34z"/>
	<path fill="#112533" d="M42.3,41.5H23.5c-0.8,0-1.5,0.7-1.5,1.5s0.7,1.5,1.5,1.5h18.8c0.8,0,1.5-0.7,1.5-1.5S43.1,41.5,42.3,41.5z"
		/>
	<path fill="#112533" d="M42.3,26.7H23.5c-0.8,0-1.5,0.7-1.5,1.5s0.7,1.5,1.5,1.5h18.8c0.8,0,1.5-0.7,1.5-1.5S43.1,26.7,42.3,26.7z"
		/>
	<path fill="#112533" d="M22.9,3c5.5,0,10.6,2.2,14.4,6.2c0.6,0.6,1.5,0.6,2.1,0.1C40,8.7,40,7.7,39.4,7.1C35.1,2.5,29.2,0,22.9,0
		C10.3,0,0,10.3,0,22.9v1.4c0,4.4,1.2,8.6,3.6,12.3c0.3,0.4,0.8,0.7,1.3,0.7c0.3,0,0.6-0.1,0.8-0.2c0.7-0.4,0.9-1.4,0.5-2.1
		C4.1,31.8,3,28.1,3,24.3v-1.4C3,11.9,11.9,3,22.9,3z"/>
</g>
</svg>
