<!-- Generator: Adobe Illustrator 19.1.0, SVG Export Plug-In  -->
<svg version="1.1"
	 xmlns="http://www.w3.org/2000/svg" xmlns:xlink="http://www.w3.org/1999/xlink" xmlns:a="http://ns.adobe.com/AdobeSVGViewerExtensions/3.0/"
	 x="0px" y="0px" width="27.9px" height="27.9px" viewBox="0 0 27.9 27.9" enable-background="new 0 0 27.9 27.9"
	 xml:space="preserve">
<defs>
</defs>
<path fill="#122532" d="M27.6,23.7l-6.5-6.5c1-1.7,1.6-3.7,1.6-5.8C22.8,5.1,17.7,0,11.4,0S0,5.1,0,11.4c0,6.3,5.1,11.4,11.4,11.4
	c2.2,0,4.2-0.6,5.9-1.7l6.5,6.5c0.4,0.4,1,0.4,1.4,0l2.4-2.4C28,24.8,28,24.1,27.6,23.7z M3,11.4C3,6.8,6.8,3,11.4,3
	s8.4,3.8,8.4,8.4c0,4.6-3.8,8.4-8.4,8.4S3,16,3,11.4z"/>
</svg>
