<!-- Generator: Adobe Illustrator 19.1.0, SVG Export Plug-In  -->
<svg version="1.1"
	 xmlns="http://www.w3.org/2000/svg" xmlns:xlink="http://www.w3.org/1999/xlink" xmlns:a="http://ns.adobe.com/AdobeSVGViewerExtensions/3.0/"
	 x="0px" y="0px" width="55px" height="53.7px" viewBox="0 0 55 53.7" enable-background="new 0 0 55 53.7" xml:space="preserve">
<defs>
</defs>
<g>
	<path fill="#112533" d="M12.2,15.8c0.2,0.2,0.4,0.3,0.7,0.3c0,0,0.1,0,0.1,0c0.3,0,0.6-0.2,0.7-0.5l4-6.8c0.3-0.5,0.1-1.1-0.3-1.4
		c-0.5-0.3-1.1-0.1-1.4,0.3l-3.4,5.7l-1.9-1.9c-0.4-0.4-1-0.4-1.4,0c-0.4,0.4-0.4,1,0,1.4L12.2,15.8z"/>
	<path fill="#112533" d="M35.7,45.4H19.2l-4.4,6.5c-0.5,0.7,0,1.7,0.9,1.7h23.4c0.9,0,1.4-1,0.9-1.7L35.7,45.4z"/>
	<path fill="#112533" d="M17.7,21.8c-0.4-0.4-1-0.4-1.4,0l-2.7,2.7l-2.7-2.7c-0.4-0.4-1-0.4-1.4,0s-0.4,1,0,1.4l2.7,2.7l-2.7,2.7
		c-0.4,0.4-0.4,1,0,1.4c0.2,0.2,0.5,0.3,0.7,0.3s0.5-0.1,0.7-0.3l2.7-2.7l2.7,2.7c0.2,0.2,0.5,0.3,0.7,0.3s0.5-0.1,0.7-0.3
		c0.4-0.4,0.4-1,0-1.4L15,25.9l2.7-2.7C18.1,22.8,18.1,22.2,17.7,21.8z"/>
	<path fill="#112533" d="M44.9,24.9H21.1c-0.6,0-1,0.4-1,1s0.4,1,1,1h23.8c0.6,0,1-0.4,1-1S45.4,24.9,44.9,24.9z"/>
	<path fill="#112533" d="M44.9,12.8H21.1c-0.6,0-1,0.4-1,1s0.4,1,1,1h23.8c0.6,0,1-0.4,1-1S45.4,12.8,44.9,12.8z"/>
	<path fill="#112533" d="M49.5,0h-44C2.5,0,0,2.5,0,5.5v30.2c0,3,2.5,5.5,5.5,5.5h44c1.1,0,2-0.3,2.9-0.8c0.4-0.2,0.8-0.5,1.1-0.9
		c0,0,0,0,0,0c1-1,1.5-2.3,1.5-3.8V5.5C55,2.5,52.5,0,49.5,0z M52,35.4H3V5.5C3,4.1,4.1,3,5.5,3h44C50.9,3,52,4.1,52,5.5V35.4z"/>
</g>
</svg>
