<!-- Generator: Adobe Illustrator 19.1.0, SVG Export Plug-In  -->
<svg version="1.1"
	 xmlns="http://www.w3.org/2000/svg" xmlns:xlink="http://www.w3.org/1999/xlink" xmlns:a="http://ns.adobe.com/AdobeSVGViewerExtensions/3.0/"
	 x="0px" y="0px" width="62px" height="47.7px" viewBox="0 0 62 47.7" enable-background="new 0 0 62 47.7" xml:space="preserve">
<defs>
</defs>
<g>
	<path fill="#112533" d="M14.5,24H2.8C1.2,24,0,25.3,0,26.8v18.1c0,1.5,1.2,2.8,2.8,2.8h11.8c1.5,0,2.8-1.2,2.8-2.8V26.8
		C17.3,25.3,16.1,24,14.5,24z M14.3,44.7H3V27h11.3V44.7z"/>
	<path fill="#112533" d="M36.9,12H25.1c-1.5,0-2.8,1.2-2.8,2.8v30.1c0,1.5,1.2,2.8,2.8,2.8h11.8c1.5,0,2.8-1.2,2.8-2.8V14.8
		C39.7,13.2,38.4,12,36.9,12z M36.7,44.7H25.4V15h11.3V44.7z"/>
	<path fill="#112533" d="M59.3,0H47.5c-1.5,0-2.8,1.2-2.8,2.8v42.1c0,1.5,1.2,2.8,2.8,2.8h11.8c1.5,0,2.8-1.2,2.8-2.8V2.8
		C62,1.2,60.8,0,59.3,0z M59,44.7H47.8V3H59V44.7z"/>
</g>
</svg>
