<!-- Generator: Adobe Illustrator 19.1.0, SVG Export Plug-In  -->
<svg version="1.1"
	 xmlns="http://www.w3.org/2000/svg" xmlns:xlink="http://www.w3.org/1999/xlink" xmlns:a="http://ns.adobe.com/AdobeSVGViewerExtensions/3.0/"
	 x="0px" y="0px" width="22.5px" height="32.8px" viewBox="0 0 22.5 32.8" enable-background="new 0 0 22.5 32.8"
	 xml:space="preserve">
<defs>
</defs>
<g>
	<path fill="#112533" d="M20.2,10.3h-2.8V6.2c0-3.4-2.8-6.2-6.2-6.2S5,2.8,5,6.2v4.1H2.2c-1.2,0-2.2,1-2.2,2.2v18
		c0,1.2,1,2.2,2.2,2.2h18c1.2,0,2.2-1,2.2-2.2v-18C22.5,11.3,21.5,10.3,20.2,10.3z M7.5,6.2c0-2.1,1.7-3.8,3.8-3.8S15,4.2,15,6.2
		v4.1H7.5V6.2z M20,30.3H2.5V12.8H5h12.5H20V30.3z"/>
	<path fill="#112533" d="M13.8,18.8c0-1.4-1.1-2.5-2.5-2.5c-1.4,0-2.5,1.1-2.5,2.5c0,1.1,0.7,2,1.6,2.3l-1.8,5.6H14l-1.8-5.6
		C13.1,20.8,13.8,19.9,13.8,18.8z"/>
</g>
</svg>
