<!-- Generator: Adobe Illustrator 19.1.0, SVG Export Plug-In  -->
<svg version="1.1"
	 xmlns="http://www.w3.org/2000/svg" xmlns:xlink="http://www.w3.org/1999/xlink" xmlns:a="http://ns.adobe.com/AdobeSVGViewerExtensions/3.0/"
	 x="0px" y="0px" width="52.3px" height="57.9px" viewBox="0 0 52.3 57.9" enable-background="new 0 0 52.3 57.9"
	 xml:space="preserve">
<defs>
</defs>
<g>
	<path fill="#112533" d="M17.7,33.7c-3.6,0-6.5,2.9-6.5,6.5c0,3.6,2.9,6.5,6.5,6.5s6.5-2.9,6.5-6.5C24.2,36.6,21.3,33.7,17.7,33.7z
		 M17.7,44.7c-2.5,0-4.5-2-4.5-4.5c0-2.5,2-4.5,4.5-4.5s4.5,2,4.5,4.5C22.2,42.7,20.2,44.7,17.7,44.7z"/>
	<path fill="#112533" d="M34.6,37.2l-3.3-0.4c-0.3-1.4-0.9-2.6-1.6-3.8l2.1-2.6c0.3-0.4,0.3-1-0.1-1.3l-2.8-2.8
		c-0.4-0.4-0.9-0.4-1.3-0.1l-2.7,2.1c-1.2-0.7-2.4-1.2-3.8-1.6l-0.4-3.3c-0.1-0.5-0.5-0.9-1-0.9h-3.9c-0.5,0-0.9,0.4-1,0.9l-0.4,3.3
		c-1.4,0.3-2.6,0.9-3.8,1.6l-2.7-2.1c-0.4-0.3-1-0.3-1.3,0.1L3.8,29c-0.4,0.4-0.4,0.9-0.1,1.3L5.8,33c-0.7,1.2-1.3,2.5-1.6,3.8
		l-3.3,0.4c-0.5,0.1-0.9,0.5-0.9,1v3.9c0,0.5,0.4,0.9,0.9,1l3.3,0.4c0.3,1.4,0.9,2.7,1.6,3.9l-2,2.6c-0.3,0.4-0.3,1,0.1,1.3l2.8,2.8
		c0.4,0.4,0.9,0.4,1.3,0.1l2.6-2c1.2,0.7,2.5,1.3,3.9,1.6l0.4,3.2c0.1,0.5,0.5,0.9,1,0.9h3.9c0.5,0,0.9-0.4,1-0.9l0.4-3.2
		c1.4-0.3,2.7-0.9,3.9-1.6l2.6,2c0.4,0.3,1,0.3,1.3-0.1l2.8-2.8c0.4-0.4,0.4-0.9,0.1-1.3l-2-2.6c0.7-1.2,1.3-2.5,1.6-3.9l3.3-0.4
		c0.5-0.1,0.9-0.5,0.9-1v-3.9C35.5,37.7,35.1,37.2,34.6,37.2z M17.7,50.2c-5.5,0-10-4.5-10-10s4.5-10,10-10s10,4.5,10,10
		S23.2,50.2,17.7,50.2z"/>
	<path fill="#112533" d="M52.3,15.9C52.3,15.9,52.3,15.9,52.3,15.9c0-0.1-0.1-0.2-0.1-0.4c0,0,0-0.1,0-0.1c-0.1-0.1-0.1-0.2-0.2-0.3
		L37.2,0.4c-0.1-0.1-0.2-0.2-0.3-0.2c0,0-0.1,0-0.1,0C36.6,0.1,36.4,0,36.2,0H20.7c-3.4,0-6.1,2.8-6.1,6.1v11.5
		c0,0.8,0.7,1.5,1.5,1.5s1.5-0.7,1.5-1.5V6.1C17.6,4.4,19,3,20.7,3h14v13.2c0,0.8,0.7,1.5,1.5,1.5h13.2v23.5c0,1.7-1.4,3.1-3.1,3.1
		h-6.5c-0.8,0-1.5,0.7-1.5,1.5s0.7,1.5,1.5,1.5h6.5c3.4,0,6.1-2.8,6.1-6.1v-25C52.3,16.1,52.3,16,52.3,15.9z M37.7,14.7V5.1l4.8,4.8
		l4.8,4.8H37.7z"/>
</g>
</svg>
