<!-- Generator: Adobe Illustrator 19.1.0, SVG Export Plug-In  -->
<svg version="1.1"
	 xmlns="http://www.w3.org/2000/svg" xmlns:xlink="http://www.w3.org/1999/xlink" xmlns:a="http://ns.adobe.com/AdobeSVGViewerExtensions/3.0/"
	 x="0px" y="0px" width="35px" height="56px" viewBox="0 0 35 56" enable-background="new 0 0 35 56" xml:space="preserve">
<defs>
</defs>
<path fill="#122532" d="M29.4,0H5.6C2.5,0,0,2.5,0,5.6v38.1v6.1v0.5C0,53.5,2.5,56,5.6,56h0.5h22.8h0.5c3.1,0,5.6-2.5,5.6-5.6v-0.5
	v-6.1V5.6C35,2.5,32.5,0,29.4,0z M17.5,53.4c-1.9,0-3.5-1.6-3.5-3.5c0-1.9,1.6-3.5,3.5-3.5s3.5,1.6,3.5,3.5
	C21,51.8,19.4,53.4,17.5,53.4z M3,43.7V5.6C3,4.2,4.2,3,5.6,3h23.8C30.8,3,32,4.2,32,5.6v38.1H3z"/>
</svg>
