<?xml version="1.0" encoding="utf-8"?>
<!-- Generator: Adobe Illustrator 19.1.0, SVG Export Plug-In . SVG Version: 6.00 Build 0)  -->
<svg version="1.1" id="Layer_1" xmlns="http://www.w3.org/2000/svg" xmlns:xlink="http://www.w3.org/1999/xlink" x="0px" y="0px"
	 viewBox="0 0 16.6 13.5" style="enable-background:new 0 0 16.6 13.5;" xml:space="preserve">
<style type="text/css">
	.st0{fill:#90A1B1;}
</style>
<g>
	<path class="st0" d="M16.4,1.8c-0.6,0.3-1.2,0.4-1.9,0.5c0.7-0.4,1.2-1.1,1.5-1.8c-0.6,0.4-1.3,0.7-2.1,0.8c-0.6-0.6-1.5-1-2.4-1
		c-1.8,0-3.3,1.5-3.3,3.3c0,0.3,0,0.5,0.1,0.8C5.4,4.1,3,2.8,1.3,0.8C1.1,1.3,0.9,1.9,0.9,2.5c0,1.1,0.6,2.2,1.5,2.8
		c-0.5,0-1.1-0.2-1.5-0.4c0,0,0,0,0,0c0,1.6,1.1,2.9,2.7,3.2C3.2,8.2,2.9,8.2,2.6,8.2c-0.2,0-0.4,0-0.6-0.1c0.4,1.3,1.6,2.3,3.1,2.3
		C4,11.4,2.6,11.9,1,11.9c-0.3,0-0.5,0-0.8,0c1.5,0.9,3.2,1.5,5.1,1.5c6.1,0,9.4-5,9.4-9.4c0-0.1,0-0.3,0-0.4
		C15.3,3,15.9,2.4,16.4,1.8z"/>
</g>
</svg>
