<!-- Generator: Adobe Illustrator 19.1.0, SVG Export Plug-In  -->
<svg version="1.1"
	 xmlns="http://www.w3.org/2000/svg" xmlns:xlink="http://www.w3.org/1999/xlink" xmlns:a="http://ns.adobe.com/AdobeSVGViewerExtensions/3.0/"
	 x="0px" y="0px" width="16px" height="16px" viewBox="0 0 16 16" enable-background="new 0 0 16 16" xml:space="preserve">
<defs>
</defs>
<path fill="#90A1B1" d="M14.2,16H1.8c-1,0-1.8-0.8-1.8-1.8V1.8C0,0.8,0.8,0,1.8,0h12.3c1,0,1.8,0.8,1.8,1.8v12.3
	C16,15.2,15.2,16,14.2,16 M8,4.9C6.3,4.9,4.9,6.3,4.9,8s1.4,3.1,3.1,3.1s3.1-1.4,3.1-3.1S9.7,4.9,8,4.9 M14.2,2.5
	c0-0.3-0.3-0.6-0.6-0.6h-1.8c-0.3,0-0.6,0.3-0.6,0.6v1.8c0,0.3,0.3,0.6,0.6,0.6h1.8c0.3,0,0.6-0.3,0.6-0.6V2.5L14.2,2.5z M14.2,6.8
	h-1.4c0.1,0.4,0.2,0.8,0.2,1.2c0,2.7-2.2,4.9-4.9,4.9c-2.7,0-4.9-2.2-4.9-4.9c0-0.4,0.1-0.8,0.2-1.2H1.8v6.8c0,0.3,0.3,0.6,0.6,0.6
	h11.1c0.3,0,0.6-0.3,0.6-0.6L14.2,6.8L14.2,6.8z"/>
</svg>
