<svg version="1.1"
	 xmlns="http://www.w3.org/2000/svg" xmlns:xlink="http://www.w3.org/1999/xlink" xmlns:a="http://ns.adobe.com/AdobeSVGViewerExtensions/3.0/"
	 x="0px" y="0px" width="15px" height="15px" viewBox="0 0 15 15" enable-background="new 0 0 15 15" xml:space="preserve">
<defs>
</defs>
<g>
	<g>
		<g>
			<path fill="#90A1B1" d="M3.4,15H0.2V5h3.1V15z M1.8,3.6C0.8,3.6,0,2.8,0,1.8C0,0.8,0.8,0,1.8,0c1,0,1.8,0.8,1.8,1.8
				C3.6,2.8,2.8,3.6,1.8,3.6z M15,15h-3.1v-4.9c0-1.2,0-2.7-1.6-2.7c-1.6,0-1.9,1.3-1.9,2.6v5H5.3V5h3v1.4h0
				c0.4-0.8,1.4-1.6,2.9-1.6c3.2,0,3.7,2.1,3.7,4.8V15z"/>
		</g>
	</g>
</g>
</svg>
